<svg version="1.1" id="Layer_1" xmlns="http://www.w3.org/2000/svg" xmlns:xlink="http://www.w3.org/1999/xlink" x="0px" y="0px"
	 width="100%" viewBox="0 0 577 433" enable-background="new 0 0 577 433" xml:space="preserve">
<path fill="#000000" opacity="0.000000" stroke="none" 
	d="
M403.000000,434.000000 
	C268.666687,434.000000 134.833405,434.000000 1.000072,434.000000 
	C1.000048,289.666748 1.000048,145.333466 1.000024,1.000149 
	C193.333206,1.000100 385.666412,1.000100 577.999756,1.000050 
	C577.999817,145.333191 577.999817,289.666382 577.999878,433.999786 
	C519.833313,434.000000 461.666656,434.000000 403.000000,434.000000 
M323.022858,184.914810 
	C323.067352,193.296066 323.111877,201.677307 323.023468,210.979523 
	C323.023468,217.073975 323.023468,223.168442 323.023468,230.311523 
	C316.534760,224.625687 310.697845,219.705185 305.078125,214.547989 
	C291.486908,202.075348 277.972748,189.518356 264.474091,176.945389 
	C253.927811,167.122345 243.467010,157.207504 232.910278,147.395813 
	C232.182739,146.719620 230.971481,146.563873 229.171448,146.455887 
	C229.114304,153.593506 229.002609,160.731155 229.009094,167.868713 
	C229.044235,206.565063 229.108597,245.261353 229.358414,284.818939 
	C237.271118,284.878967 245.184616,285.005188 253.095444,284.909729 
	C254.015930,284.898621 254.921585,283.660736 255.975159,282.064789 
	C255.975159,257.218506 255.975159,232.372238 255.975159,206.870544 
	C270.209778,219.586441 283.754822,231.574188 297.170959,243.704498 
	C309.156219,254.541016 320.945435,265.594391 332.931213,276.430328 
	C337.783966,280.817566 342.928528,284.881989 348.328796,289.825714 
	C348.884796,288.468842 349.924072,287.112885 349.926697,285.754944 
	C350.011688,241.797913 349.999054,197.840683 349.985107,153.883499 
	C349.984711,152.622437 349.812042,151.361420 349.711517,149.989182 
	C341.392456,149.989182 333.412262,149.959686 325.433075,150.036865 
	C324.673157,150.044205 323.919708,150.718582 323.016083,151.900055 
	C323.066895,153.278519 323.117706,154.656982 323.036957,156.959274 
	C323.077423,165.966736 323.117889,174.974213 323.022858,184.914810 
M177.056152,269.330078 
	C179.368088,274.698059 181.663254,280.073303 183.997910,285.431396 
	C185.531052,288.950012 187.006454,292.501312 188.724396,295.929382 
	C189.958679,298.392273 192.188828,300.505829 192.871384,303.069061 
	C195.596252,313.301849 201.615112,323.602539 214.304749,322.190491 
	C217.201416,321.868164 220.426773,323.825867 223.394241,325.002930 
	C226.372330,326.184235 229.120834,327.996307 232.148407,328.985992 
	C235.030334,329.928070 238.449951,329.539246 241.092789,330.836517 
	C247.497589,333.980225 253.573349,337.790741 259.812469,341.277496 
	C262.041656,342.523224 264.347687,344.576691 266.638580,344.604248 
	C276.923096,344.727997 287.276550,343.464233 297.483246,344.261658 
	C304.924713,344.843018 313.059937,343.623901 319.796814,348.756775 
	C320.592041,349.362640 323.030731,349.008820 323.831573,348.215515 
	C329.017151,343.079041 333.657898,342.608215 338.604767,347.025879 
	C339.128906,347.493958 339.906891,347.677795 340.657104,348.036530 
	C341.513153,342.793549 341.513153,342.793549 348.868256,341.435028 
	C349.321869,335.257385 355.986816,327.436676 362.261963,325.389587 
	C363.766266,326.441101 365.068695,327.351501 366.371124,328.261902 
	C366.640564,327.941864 366.909973,327.621826 367.179413,327.301788 
	C365.681519,324.789764 364.183655,322.277740 362.358490,319.216827 
	C365.849792,318.717804 368.449860,318.346191 371.097595,317.967743 
	C372.067413,317.095825 373.256134,315.139648 374.363190,315.184875 
	C379.242981,315.384033 382.587402,314.375519 382.248230,308.545135 
	C382.220490,308.068604 383.035400,307.545288 383.454498,307.040192 
	C385.647522,304.397064 388.241669,301.989410 389.959503,299.066742 
	C396.384155,288.136383 402.521790,277.037292 408.767059,266.001495 
	C408.189484,265.548187 407.611908,265.094849 407.034332,264.641541 
	C405.690735,265.590424 404.367950,266.570465 402.999695,267.482300 
	C398.925171,270.197540 396.788422,274.615936 392.181671,277.351349 
	C381.092743,283.935822 371.553497,293.150421 360.408875,299.613922 
	C352.631836,304.124329 347.347565,314.896271 335.597656,311.234528 
	C334.554291,310.909393 333.191833,311.719116 331.961304,311.861511 
	C328.985657,312.205750 325.957336,312.254974 323.036560,312.848114 
	C321.496185,313.160919 320.136658,314.364227 319.234924,314.865570 
	C318.135132,313.265778 317.389313,312.180878 316.078461,310.274078 
	C315.456543,313.166718 315.419159,314.129608 315.047760,314.939270 
	C312.746246,319.956879 308.823334,322.164734 303.270142,322.343597 
	C299.262451,322.472717 295.200012,324.334290 291.309387,323.946045 
	C283.436371,323.160400 275.698730,321.104584 267.840118,320.064972 
	C258.517151,318.831604 249.046036,318.394592 240.965469,312.218994 
	C241.664764,311.040619 242.374802,309.844086 243.647156,307.700043 
	C240.121384,308.417816 237.551468,308.941010 235.070267,309.446136 
	C224.314407,299.054688 213.933273,288.401184 202.858154,278.526031 
	C194.252151,270.852478 188.825745,261.546448 184.950089,250.961121 
	C184.416306,249.503220 182.040894,248.816528 181.040131,247.403152 
	C180.180023,246.188431 179.522369,243.197281 179.701675,243.119202 
	C183.849960,241.312820 181.525101,238.358170 181.373260,235.659195 
	C181.065186,230.183044 180.975021,224.681091 181.139648,219.200134 
	C181.188873,217.561615 182.757690,216.009384 182.990204,214.329041 
	C184.424286,203.964676 185.873169,193.595276 186.940292,183.188904 
	C188.493683,168.040817 195.693390,155.694809 205.740829,144.849091 
	C216.261627,133.492371 227.886887,123.580139 241.492691,115.759460 
	C256.786102,106.968735 272.372711,100.399689 290.370056,100.956253 
	C298.183777,101.197884 299.441040,99.561646 298.752777,92.413567 
	C285.635956,81.768906 274.984253,91.145943 263.771912,95.885590 
	C261.989807,92.308960 259.936737,92.079964 256.796387,94.607582 
	C254.077545,96.795921 250.894867,100.460342 248.197876,100.227104 
	C240.974609,99.602417 236.492813,103.057014 233.490967,108.352097 
	C231.579773,111.723335 229.486938,111.285141 226.713348,111.339798 
	C223.843430,111.396370 220.104416,110.976738 218.273392,112.546974 
	C210.488525,119.223038 203.250763,126.539703 195.874115,133.685303 
	C195.089020,134.445816 194.437866,135.551071 194.172607,136.608780 
	C192.206635,144.447937 186.071259,149.134094 180.911682,154.611618 
	C177.060776,158.699799 173.000168,162.759827 170.013077,167.455856 
	C164.364868,176.335449 163.815186,186.877075 162.166306,196.922485 
	C161.409561,201.532791 161.598846,206.672256 162.847244,211.157547 
	C165.220825,219.685242 168.694504,227.904633 171.615723,236.285385 
	C171.893799,237.083145 171.860352,238.489670 171.355591,238.981812 
	C166.916229,243.310226 168.586151,248.358521 170.091522,252.944977 
	C171.855377,258.318939 174.591660,263.373718 177.056152,269.330078 
M408.006622,199.288086 
	C409.112396,200.308014 410.218170,201.327942 411.712830,202.706528 
	C410.971069,206.502884 410.059845,211.151428 412.355682,216.536362 
	C414.136963,207.768539 415.727478,199.939621 417.505920,191.185623 
	C415.626770,192.403595 414.376190,193.214157 413.133057,194.019882 
	C412.756348,188.656372 412.841492,183.162231 411.885712,177.855591 
	C410.502777,170.177322 411.193390,161.971039 405.824158,155.190704 
	C402.624207,151.149780 400.354950,146.380875 397.563202,142.005661 
	C392.158997,133.536346 387.383179,124.538338 381.053680,116.819992 
	C373.398010,107.484459 362.778748,101.803200 351.317047,98.026161 
	C346.583588,96.466316 341.671631,94.229568 336.882111,94.327034 
	C328.461975,94.498405 320.044006,96.054504 311.700287,97.472862 
	C310.270294,97.715942 308.364777,100.033867 308.139496,101.603004 
	C307.380035,106.893318 309.850494,109.889938 316.275726,111.943039 
	C320.873993,113.412346 326.205841,113.505524 330.149994,115.934509 
	C343.416962,124.104935 356.322632,132.882904 369.123932,141.777603 
	C373.804291,145.029633 378.067169,147.919174 383.836731,144.244720 
	C383.935638,152.470688 385.367615,160.242050 391.985138,165.210938 
	C395.831024,168.098663 397.945465,171.189117 396.866730,175.449646 
	C395.339691,181.481003 398.005035,185.708359 401.396820,189.963226 
	C403.640442,192.777710 405.802948,195.656845 408.006622,199.288086 
z"/>
<path fill="#FF5A5A" opacity="1.000000" stroke="none" 
	d="
M176.981140,268.948486 
	C174.591660,263.373718 171.855377,258.318939 170.091522,252.944977 
	C168.586151,248.358521 166.916229,243.310226 171.355591,238.981812 
	C171.860352,238.489670 171.893799,237.083145 171.615723,236.285385 
	C168.694504,227.904633 165.220825,219.685242 162.847244,211.157547 
	C161.598846,206.672256 161.409561,201.532791 162.166306,196.922485 
	C163.815186,186.877075 164.364868,176.335449 170.013077,167.455856 
	C173.000168,162.759827 177.060776,158.699799 180.911682,154.611618 
	C186.071259,149.134094 192.206635,144.447937 194.172607,136.608780 
	C194.437866,135.551071 195.089020,134.445816 195.874115,133.685303 
	C203.250763,126.539703 210.488525,119.223038 218.273392,112.546974 
	C220.104416,110.976738 223.843430,111.396370 226.713348,111.339798 
	C229.486938,111.285141 231.579773,111.723335 233.490967,108.352097 
	C236.492813,103.057014 240.974609,99.602417 248.197876,100.227104 
	C250.894867,100.460342 254.077545,96.795921 256.796387,94.607582 
	C259.936737,92.079964 261.989807,92.308960 263.771912,95.885590 
	C274.984253,91.145943 285.635956,81.768906 298.752777,92.413567 
	C299.441040,99.561646 298.183777,101.197884 290.370056,100.956253 
	C272.372711,100.399689 256.786102,106.968735 241.492691,115.759460 
	C227.886887,123.580139 216.261627,133.492371 205.740829,144.849091 
	C195.693390,155.694809 188.493683,168.040817 186.940292,183.188904 
	C185.873169,193.595276 184.424286,203.964676 182.990204,214.329041 
	C182.757690,216.009384 181.188873,217.561615 181.139648,219.200134 
	C180.975021,224.681091 181.065186,230.183044 181.373260,235.659195 
	C181.525101,238.358170 183.849960,241.312820 179.701675,243.119202 
	C179.522369,243.197281 180.180023,246.188431 181.040131,247.403152 
	C182.040894,248.816528 184.416306,249.503220 184.950089,250.961121 
	C188.825745,261.546448 194.252151,270.852478 202.858154,278.526031 
	C213.933273,288.401184 224.314407,299.054688 235.070267,309.446136 
	C237.551468,308.941010 240.121384,308.417816 243.647156,307.700043 
	C242.374802,309.844086 241.664764,311.040619 240.965469,312.218994 
	C249.046036,318.394592 258.517151,318.831604 267.840118,320.064972 
	C275.698730,321.104584 283.436371,323.160400 291.309387,323.946045 
	C295.200012,324.334290 299.262451,322.472717 303.270142,322.343597 
	C308.823334,322.164734 312.746246,319.956879 315.047760,314.939270 
	C315.419159,314.129608 315.456543,313.166718 316.078461,310.274078 
	C317.389313,312.180878 318.135132,313.265778 319.234924,314.865570 
	C320.136658,314.364227 321.496185,313.160919 323.036560,312.848114 
	C325.957336,312.254974 328.985657,312.205750 331.961304,311.861511 
	C333.191833,311.719116 334.554291,310.909393 335.597656,311.234528 
	C347.347565,314.896271 352.631836,304.124329 360.408875,299.613922 
	C371.553497,293.150421 381.092743,283.935822 392.181671,277.351349 
	C396.788422,274.615936 398.925171,270.197540 402.999695,267.482300 
	C404.367950,266.570465 405.690735,265.590424 407.034332,264.641541 
	C407.611908,265.094849 408.189484,265.548187 408.767059,266.001495 
	C402.521790,277.037292 396.384155,288.136383 389.959503,299.066742 
	C388.241669,301.989410 385.647522,304.397064 383.454498,307.040192 
	C383.035400,307.545288 382.220490,308.068604 382.248230,308.545135 
	C382.587402,314.375519 379.242981,315.384033 374.363190,315.184875 
	C373.256134,315.139648 372.067413,317.095825 371.097595,317.967743 
	C368.449860,318.346191 365.849792,318.717804 362.358490,319.216827 
	C364.183655,322.277740 365.681519,324.789764 367.179413,327.301788 
	C366.909973,327.621826 366.640564,327.941864 366.371124,328.261902 
	C365.068695,327.351501 363.766266,326.441101 362.261963,325.389587 
	C355.986816,327.436676 349.321869,335.257385 348.868256,341.435028 
	C341.513153,342.793549 341.513153,342.793549 340.657104,348.036530 
	C339.906891,347.677795 339.128906,347.493958 338.604767,347.025879 
	C333.657898,342.608215 329.017151,343.079041 323.831573,348.215515 
	C323.030731,349.008820 320.592041,349.362640 319.796814,348.756775 
	C313.059937,343.623901 304.924713,344.843018 297.483246,344.261658 
	C287.276550,343.464233 276.923096,344.727997 266.638580,344.604248 
	C264.347687,344.576691 262.041656,342.523224 259.812469,341.277496 
	C253.573349,337.790741 247.497589,333.980225 241.092789,330.836517 
	C238.449951,329.539246 235.030334,329.928070 232.148407,328.985992 
	C229.120834,327.996307 226.372330,326.184235 223.394241,325.002930 
	C220.426773,323.825867 217.201416,321.868164 214.304749,322.190491 
	C201.615112,323.602539 195.596252,313.301849 192.871384,303.069061 
	C192.188828,300.505829 189.958679,298.392273 188.724396,295.929382 
	C187.006454,292.501312 185.531052,288.950012 183.997910,285.431396 
	C181.663254,280.073303 179.368088,274.698059 176.981140,268.948486 
z"/>
<path fill="#FF5959" opacity="1.000000" stroke="none" 
	d="
M347.940308,289.093292 
	C342.928528,284.881989 337.783966,280.817566 332.931213,276.430328 
	C320.945435,265.594391 309.156219,254.541016 297.170959,243.704498 
	C283.754822,231.574188 270.209778,219.586441 255.975159,206.870544 
	C255.975159,232.372238 255.975159,257.218506 255.539871,282.720703 
	C246.760147,283.531219 238.415695,283.685822 230.053192,283.382050 
	C230.018463,237.337814 230.001816,191.751953 229.985168,146.166092 
	C230.971481,146.563873 232.182739,146.719620 232.910278,147.395813 
	C243.467010,157.207504 253.927811,167.122345 264.474091,176.945389 
	C277.972748,189.518356 291.486908,202.075348 305.078125,214.547989 
	C310.697845,219.705185 316.534760,224.625687 323.023468,230.311523 
	C323.023468,223.168442 323.023468,217.073975 323.320740,210.166534 
	C323.730927,200.912048 323.843872,192.470551 323.975342,183.558868 
	C323.718781,174.070953 323.443634,165.053207 323.168518,156.035446 
	C323.117706,154.656982 323.066895,153.278519 323.547363,151.480682 
	C330.568726,151.053482 337.074890,151.321198 343.543365,150.943665 
	C348.064331,150.679779 349.114594,152.332489 349.100189,156.622467 
	C348.957611,199.057327 349.026550,241.492874 348.968567,283.928131 
	C348.966217,285.650330 348.298187,287.371582 347.940308,289.093292 
z"/>
<path fill="#FF5A5A" opacity="1.000000" stroke="none" 
	d="
M408.004181,198.897552 
	C405.802948,195.656845 403.640442,192.777710 401.396820,189.963226 
	C398.005035,185.708359 395.339691,181.481003 396.866730,175.449646 
	C397.945465,171.189117 395.831024,168.098663 391.985138,165.210938 
	C385.367615,160.242050 383.935638,152.470688 383.836731,144.244720 
	C378.067169,147.919174 373.804291,145.029633 369.123932,141.777603 
	C356.322632,132.882904 343.416962,124.104935 330.149994,115.934509 
	C326.205841,113.505524 320.873993,113.412346 316.275726,111.943039 
	C309.850494,109.889938 307.380035,106.893318 308.139496,101.603004 
	C308.364777,100.033867 310.270294,97.715942 311.700287,97.472862 
	C320.044006,96.054504 328.461975,94.498405 336.882111,94.327034 
	C341.671631,94.229568 346.583588,96.466316 351.317047,98.026161 
	C362.778748,101.803200 373.398010,107.484459 381.053680,116.819992 
	C387.383179,124.538338 392.158997,133.536346 397.563202,142.005661 
	C400.354950,146.380875 402.624207,151.149780 405.824158,155.190704 
	C411.193390,161.971039 410.502777,170.177322 411.885712,177.855591 
	C412.841492,183.162231 412.756348,188.656372 413.133057,194.019882 
	C414.376190,193.214157 415.626770,192.403595 417.505920,191.185623 
	C415.727478,199.939621 414.136963,207.768539 412.355682,216.536362 
	C410.059845,211.151428 410.971069,206.502884 411.712830,202.706528 
	C410.218170,201.327942 409.112396,200.308014 408.004181,198.897552 
z"/>
<path fill="#FFAEAE" opacity="1.000000" stroke="none" 
	d="
M348.134552,289.459503 
	C348.298187,287.371582 348.966217,285.650330 348.968567,283.928131 
	C349.026550,241.492874 348.957611,199.057327 349.100189,156.622467 
	C349.114594,152.332489 348.064331,150.679779 343.543365,150.943665 
	C337.074890,151.321198 330.568726,151.053482 323.620972,151.072296 
	C323.919708,150.718582 324.673157,150.044205 325.433075,150.036865 
	C333.412262,149.959686 341.392456,149.989182 349.711517,149.989182 
	C349.812042,151.361420 349.984711,152.622437 349.985107,153.883499 
	C349.999054,197.840683 350.011688,241.797913 349.926697,285.754944 
	C349.924072,287.112885 348.884796,288.468842 348.134552,289.459503 
z"/>
<path fill="#FF8282" opacity="1.000000" stroke="none" 
	d="
M229.578308,146.310989 
	C230.001816,191.751953 230.018463,237.337814 229.827759,283.424316 
	C229.620407,283.924988 229.162888,283.957672 229.162903,283.957672 
	C229.108597,245.261353 229.044235,206.565063 229.009094,167.868713 
	C229.002609,160.731155 229.114304,153.593506 229.578308,146.310989 
z"/>
<path fill="#FF7171" opacity="1.000000" stroke="none" 
	d="
M323.102722,156.497360 
	C323.443634,165.053207 323.718781,174.070953 323.776001,183.545670 
	C323.558105,184.002625 323.158356,183.981674 323.158356,183.981674 
	C323.117889,174.974213 323.077423,165.966736 323.102722,156.497360 
z"/>
<path fill="#FFD1D1" opacity="1.000000" stroke="none" 
	d="
M229.260651,284.388306 
	C229.162888,283.957672 229.620407,283.924988 229.845825,283.882690 
	C238.415695,283.685822 246.760147,283.531219 255.469360,283.184113 
	C254.921585,283.660736 254.015930,284.898621 253.095444,284.909729 
	C245.184616,285.005188 237.271118,284.878967 229.260651,284.388306 
z"/>
<path fill="#FF8282" opacity="1.000000" stroke="none" 
	d="
M323.090607,184.448242 
	C323.158356,183.981674 323.558105,184.002625 323.757446,184.015839 
	C323.843872,192.470551 323.730927,200.912048 323.387207,209.706055 
	C323.111877,201.677307 323.067352,193.296066 323.090607,184.448242 
z"/>
</svg>